<?xml version="1.0" encoding="utf-8"?>
<!-- Generator: Adobe Illustrator 18.0.0, SVG Export Plug-In . SVG Version: 6.00 Build 0)  -->
<!DOCTYPE svg PUBLIC "-//W3C//DTD SVG 1.1//EN" "http://www.w3.org/Graphics/SVG/1.1/DTD/svg11.dtd">
<svg version="1.1" id="Layer_1" xmlns="http://www.w3.org/2000/svg" xmlns:xlink="http://www.w3.org/1999/xlink" x="0px" y="0px"
	 viewBox="0 0 831 435" enable-background="new 0 0 831 435" xml:space="preserve">
<g>
	<path fill="#FFFFFF" d="M560,218v-2h-2v-1h5v-1.1l3,0.5V213h1.6c4.7-1,7.4-1.9,8.4-1.9v-0.5l-0.8-1l3.8-0.5v1h0.6l4.3-3h0.7
		l4.3,0.7c0-0.8,1.7-1.3,5-1.5c0.5,0,1.1,0.6,1.6,1.6c0.8,0,1.4-0.3,1.4-1v-0.5l-1.4-1.7c1.6,0,2.2-0.5,2.2-1.5h3.8
		c1.3,0,2.9-0.8,5-1.8c0,0.7,0.4,0.8,1.2,0.8h0.7c0.8,0,1.2-0.1,1.2-0.8l-0.7-1.1c0.5,0,1.1-0.1,1.9-0.5c0.8,0.3,1.7,0.5,2.6,0.5
		c1.4-1.4,3.3-1.9,5.7-1.9c0.9,0,1.7-0.3,2.4,0.7h0.7c0-1-0.2-1.2-0.7-1.9c0-0.7,1-1.1,3.1-1.1l1.2,0.5c0-0.6,1.1-1.5,3.3-2.6
		c3.6-0.5,5.9-1.1,6.9-1.7l-0.7-0.8l3.1,0.8h3.1c8.4-4,12.9-5.1,13.4-5.1l-0.7-1.3c-1.3,0-3,0.3-5,1.2l-24.6,6.4
		c-17.2,4.1-26.7,6.8-28.3,8.3c-0.5,0-0.7-0.3-0.7-0.8c-13.7,4.1-28.1,8.4-43.4,11.4h-1.4l1.9-2.5l-0.5-1.2c5-3.6,7.5-5.9,7.5-6.9
		c5.9-5.2,8.8-8.5,8.8-9.9l9.4-10.4c4.6-5.3,6.9-8.2,6.9-8.7c6.5-7.1,13.7-15.8,21.5-26.2l-0.7-1c0-0.7,0.5-1.1,1.4-1.2
		c4.5-6.9,7.6-10.9,9.4-12c15.5-26.5,23.3-42.3,23.3-47.6c4.3-7.6,7.7-20,10.2-37l-0.8-1.2c0.5,0,0.6-0.2,0.6-0.5V43
		c0-11.6-4.3-20.8-13.2-27.8c-8.2-4.7-15.7-7.1-22.7-7.1l-1.2,0.5c0-0.3-0.2-0.5-0.5-0.5c-11.6,0-24.8,3.3-39.7,9.9
		c-5.3,0.6-15.8,5.8-31.6,15.8c-11,6.2-21.1,14.1-30.2,23.4c-3,2.3-6.9,6.1-11.7,11.2c-1.3-0.7-2.6-1.4-3.9-2
		c-17.2-8.7-39.9-14.7-67.9-18l-1.6,0.7c0-0.6-5.8-1.3-17.4-2.1l-1.7,0.7c0-0.5-0.3-0.7-0.9-0.7h-0.7c-6,0-11-0.3-14.9-0.7
		c-21.3,0-46.1,2.8-74.4,8.3c-12.3,2.2-28.3,6.1-48.1,11.8c-22,7.4-42.6,16.9-62,28.5c-14.2,10.2-21.7,15.3-22.4,15.3
		c-7.5,8.2-13.6,14.2-18.2,18C153,143.7,147,158.7,147,173.3v2.1c0,8.7,3.6,17.5,10.7,26.4c19.1,19.4,44.5,29.2,76.2,29.2H246v0.6
		l-51.1,52.8c-1,1.5-12,4.3-33.1,8.3l-41.9,11.1c-0.9,0-5.9,1.6-12.9,4.9V308c-15,5.7-22.3,8.9-23.5,9.7c-12.1,4.7-18.6,7.8-19,9
		c-8,3.4-20.5,10.5-37.4,21.5c-3.8,4.2-6.3,6.2-7.5,6.2c-5.3,6.5-8.6,9.5-9.9,9.5c0,2.3,0.8,4,2.4,4H14v-1c7-2.3,10.7-3.9,10.7-4.9
		c21.1-15.7,38.9-26.6,53.8-32.6l24.8-11.1c23-7.9,48.7-15,77.7-21.5v0.7c-1,1.4-7.5,6.9-20.7,16.2c0.3,1.4,2.5,2.3,6.6,2.3h3.3
		c1.5,0,4.2-1.4,8.2-3.7c11.8-10.2,18.2-15.4,19.1-15.4c0-2.9,7.8-5.5,23.3-7.7c41.3-7.4,63.1-11.8,65.3-13.2
		c15.5-2.7,23.3-4.5,23.3-5.6c37-8.8,65.7-17.6,85.9-26.4c11.5-4.7,21.9-9.1,31.2-13.4c5.1,6.9,13.4,10.6,24.7,10.6
		c0.7-0.3,1.5-0.3,2.4-0.3h3.8c7.4,0,18.6-1.9,33.5-5.1l29.5-6.9h0.8v1.7c-1,0.1-8.1,6.9-22.1,20.3c-2.4,1.6-9.6,8-21.5,19.1
		c-5.1,3.6-9.5,7.4-13.2,11.5c-2.9,2.9-4.6,4.3-5,4.3c-10,7.4-15.2,11.8-15.3,13.2c-3.6,1.8-5.8,3.8-7.8,5.9v1h1.8
		c3.7-2,5.6-2.6,5.6-3.5c5.4-2.4,8.2-4.2,8.2-5c0-0.3-0.2-0.9-0.5-1.6c0.3,0,0.5-0.1,0.5-0.5l1.4,0.6h1.2c1-1,2.1-1.3,3.1-1.3
		c8.4-7.9,13.5-11.9,15.1-12c2.4-3.2,4.9-5.1,7.1-5.4L479,276v-0.5c0,0,1.6-0.3,3-1c2.2-2.9,4.2-4.3,6.2-4.3
		c4.2-5.7,7.3-8.6,9.5-8.7c2.8-3.7,5.1-5.6,6.9-5.6c0.3-1.8,0.9-3.1,1.7-3.8c3.4-1.2,6.5-3.2,9.5-6.1c0.2-1,3.6-3.9,10.1-8.7
		c2.4-3.6,4.1-5.4,5-5.4c2.2-4.2,7.2-7.7,15.1-10.4c0,0.3,0.2,0.5,0.7,0.5h0.5l1.9-1c0-0.8-0.6-1.2-1.9-1.2l0.7-1l-0.7-1
		c0.5,0,0.7-0.2,0.7-0.5c2.2,0.7,3.7,1,4.5,1c1.6-0.3,3.1-0.7,4.3-1.4l1.9,1.2H560z M20,361v-1h2.2c1,0,1.6,0,1.6,1H20z
		 M398.4,232.3c-2,1.2-4.4,2.3-7.3,3.5c-18.7,6.9-28.2,10.6-28.3,11.1c-8.4,1.9-16.7,4.4-24.2,7.6c-18,4.2-31.7,7.9-40.7,11.1v-0.7
		l-34,7.6v-0.7c-10,2.8-20.2,5.1-29.5,6.9l-1.4-0.7l-7.1,2.1v-0.7c-1,0.9-6,1.9-13,2.8v-1.4c7-6.7,10-10.4,10-11.1
		c13.2-12.6,19.8-19.6,19.8-20.8c10.5-9,16.9-15.7,19.1-20.1c23.5-4.3,46.6-12.6,69.4-25c14.5-6.8,29.1-17.2,43.9-31.2
		c2-6,3.4-9,4.2-9c-0.6-5.1-1.7-7.6-3.3-7.6c-15.3,17.4-29.6,29.1-43,35.4c-14,9.5-32.7,17.7-56.2,25.7h-1.7c0.8-2,1.6-2.8,2.4-2.8
		c1.2-1.7,8.9-10.3,23.3-25.7c34.2-38.9,58.5-68.5,72.7-88.9l19.1-29.6c0-3.7-1.9-7.1-5.7-8.1h-0.9c-2.7,1-5.4,4.6-8.3,10.2
		c-4.1,8.2-6.5,12.5-7.5,13.1c-6.9,10.4-12.1,17.5-15.6,21.5c-17.7,24.9-48.9,61.4-93.5,109.7c-3.1,5.1-12.5,7.6-28.1,7.6h-7.5
		c-10.2,0-22-2.1-35.5-6.3c-22.1-9.9-33.1-22.9-33.1-38.9v-2.1l0.8-3.5c-0.6,0-0.9-0.2-0.9-0.7c0-15.3,9.4-32.2,28.3-50.7
		c25.7-20.6,44.1-32.6,55.3-36.1c6-3.2,19.4-8.1,39.8-14.6C288,68,309,63.2,345,56.7v0.7c5-1.4,21.8-2.8,51.1-4.2
		c25.1,0,49.9,3.5,74.4,10.4c9.1,3,17.1,6.3,24,9.9c-1.4,1.6-2.9,3.3-4.5,5c-17.1,21.5-26.6,40.4-28.3,56.7l1.7,6.6
		c3.8,6.5,9.7,9.7,17.7,9.7c5.9,0,13.5-2.7,22.7-8.2c7.2-6,11.4-11.1,12.7-15.3c0-1-0.9-1.8-2.6-2.3c0.8-1.3,1.7-3.4,2.6-6.8
		c-0.5-2-0.7-3.1-0.7-3.1h-0.7c-0.9,0-2.4,2.5-4.3,7.4c-12.1,15.3-23.1,22.6-32.8,22.6h-0.7c-4.2-2-6.2-5.7-6.2-9.3
		c0-1,0.2-1.5,0.7-1.5c0-9.8,3-19.1,8.9-27.7c0-0.5-0.2-0.7-0.7-0.7c6.8-11.2,13.8-21,20.8-29.3c0.1-0.1,0-0.2,0.1-0.3
		c18.2,11.2,27.1,25.2,27.1,41.9v6.9c0,7.5-4,17.7-12.3,30.5c-2.3,3.7-5.5,7.5-9.7,11.7c-14.4,4.3-27.3,9.4-38.7,15.1
		c-27.8,15.1-42.4,27.8-43.9,38c-12.6,5.1-20.3,9-23.2,11.6L398.4,232.3z M486.8,184.1c-0.8,0.6-1.5,1.1-2.3,1.7
		c-9.1,6.9-14.3,10.4-15.6,10.4c-11,7.1-21.3,13.2-30.9,18.3c1.2-1.4,2.6-2.9,4.1-4.5c12.1-8.8,18.2-13.4,18.2-13.7
		C469.9,191.6,478.7,187.6,486.8,184.1z M532.9,217.7c-39.3,10.5-67.7,15.8-85,15.8c-3,0-4.5-0.2-4.5-0.5c-6.4,0-10-1.7-11-5.1
		c10.7-5.1,19.8-9.9,27.3-14.3c1.3,0,9.3-4.6,23.9-13.9c18.6-13.8,29.2-22.4,31.7-25.9c3.8-1.1,7.4-1.9,10.7-2.4
		c9.5-1.8,17.9-4,25.2-6.6l3.1,0.5c0-0.7,1.1-2,3.3-3.5c0-0.8-1.3-0.8-3.8-1.8h-5c-9.3,1-17.3,2.1-24.2,3.4
		c9.2-11.2,13.8-23.6,13.8-37.4c-0.6,0-0.9-0.2-0.9-0.6l0.9-1.3c0-0.5-0.3-1-0.9-2h0.9c-1.2-4-2-8.8-2.4-13.2
		c-6-14.9-16-27-30.1-36.3c14.1-14.1,26.7-24.8,37.9-32.1c24.8-15.6,47.4-24.4,68-26.2c3.4,0,7.4,0.2,12,0.5
		c12.1,3.5,18.3,12.6,18.3,27.2v3.8c-1,7.5-2.1,14.3-3.7,20.3c-5.1,16-12.5,32.7-22.2,50.2c-12.6,19.8-22.5,34-29.5,42.5
		c-10,12.6-18.2,22.3-24.6,29C551,201.1,541.4,211.1,532.9,217.7z"/>
	<path fill="#FFFFFF" d="M696,176.2v0.8h2.1c0.8,0,0.9-0.6,0.9-1.3V175h-1.6C696.7,175,696,175.5,696,176.2z"/>
	<path fill="#FFFFFF" d="M820.3,29h-0.5c-0.2,3-10.8,13.1-31.6,31.8c0,0.3-17.6,17.9-52.9,52.5c-18,19.3-27.5,29-28.5,29
		c-7.6,8.9-12,13.7-13.2,14.3c-10.5,12.4-16.2,18.6-17,18.6c0,3.5-6.7,6.7-20.1,9.7c0,0.7,0.4,1.1,1.2,1.1h1.2c1.3,0,3.8-1,7.6-2
		h0.5v0.9l-1.3,1.7l0.8,1l-10.7,11.5c-6.5,9-10.2,13.8-11.3,14.2c0,0.3-6.3,8.7-18.9,25l-20.1,29.5c-12.4,18.6-23.2,38.3-32.7,59
		c-9.3,21.4-13.8,39-13.8,52.9v4.3c0,19.2,9.8,31.9,29.6,38.2l1.2-0.5c1.3,0.7,4.8,1.3,10.7,1.7c2.1-0.3,3.1-0.8,3.1-1.2
		c5.4,0,8.1-0.7,8.1-2.5l1.9,1.2h2.4v-0.8l-0.9-0.8l1-0.4h1.4c0,0-0.2,0.4-0.7,0.4l0.7,0.9c1.5-1.9,2.5-2.6,3.1-2.6
		c0,0.7,1,1.2,3.1,1.2h1.2c0.8,0,1.2-0.6,1.2-1.3c0-0.6-0.4-0.9-1.2-1c0-0.9,1.3-1.7,3.8-1.7h4.3c0-1,0.5-2.4,1.8-4
		c2.5,0,5.2-0.9,8.2-2.2V408h-1v-0.9c5,0,9-1.4,11.9-4.3l1.4,0.5c2.2-2,8.3-5.6,18.2-10.9c6.7-3.5,10.3-5.6,10.3-6.4l17.2-9.4V375
		h-1.7l-1.2,0.8c-7.6,3.9-11.5,6.4-11.5,7.2c-7.5,2.7-11.3,4.7-11.3,6.1c-8.4,3.2-12.7,5.6-12.7,7c-0.3,0-0.5-0.2-0.5-0.5
		c-29,14.2-50.9,21.4-65.6,21.4c-10.9,0-18.5-3.6-22.7-10.9c-4.2-5.9-6.2-12.8-6.2-20.6c0.3,0,0.5-0.2,0.5-0.7l-0.5-1
		c0-5.1,0.4-9.7,1.2-13.7c2.5-15.3,5.7-26,9.4-32.1c1.2-5.3,5-13.9,11.5-25.7c0-1.9,3.6-8.4,10.8-19.6c1.8-4.4,3.1-6.6,3.6-6.6
		c1.8-4.7,3.4-7.1,4.5-7.1c4.3-8.3,7.2-12.8,8.8-13.5c0.2-2.2,0.9-3.3,1.9-3.3c2.2-4.2,4.9-7.8,8.2-10.9c2.9-5.9,4.7-8.9,5.6-8.9
		c0.5-1.8,2.6-4.4,5.9-7.6c5.6-8.1,11-14.8,16-20.1V212h-1.7l-1.3,0.9v-0.7c1-0.8,1.3-1.2,1.3-2.2h1.7v1h0.8c0.7,0,2.2-1.4,4.5-4.3
		l10.5-12.5c4.4-6.7,10.3-12.2,18.3-16.5V177h-2v-1.3c3-3.7,4.2-5.6,4.5-5.6c11-10.6,16.6-16.8,16.6-18.6c3.7-2.2,8.1-6.2,13.2-12
		c4-4.3,6.2-6.7,6.3-7.1c5.4-4.7,8.2-8,8.2-9.7c0.5,0,0.7,0.2,0.7,0.5l68.7-66.1c13.4-11.8,20.1-19.3,20.1-22.1
		C825.3,32.6,823.7,31,820.3,29z M601.6,283.7h-0.7v-1h1.9C602.8,283.3,602.4,283.7,601.6,283.7z M612.9,267.9
		c-0.5,0-1.1,0.2-1.9,0.5v-1h1.9V267.9z M644,224h-0.7c0,0-0.2-0.9-0.7-1.6c0.5,0,0.4-0.1,0.4-0.4c0.8,0,1,0.4,1,1.1V224z
		 M692.9,164.8c0,0.7-0.4,1-1.2,1v-1.6h1.2V164.8z"/>
	<path fill="#FFFFFF" d="M576.5,212c0,0-0.5,0.9-1.5,0.9v1c2-0.3,3-0.5,3-0.5v-0.5c0-0.7-0.2-0.9-1-0.9H576.5z"/>
	<path fill="#FFFFFF" d="M517,112.4V111h-1.1c0,1,0.1,1.2-0.9,1.9v0.1h0.9C516.7,113,517,113.1,517,112.4z"/>
	<rect x="771.2" y="158.2" fill="#FFFFFF" width="1.9" height="1"/>
	<path fill="#FFFFFF" d="M701.2,174l0.5,1.2c4.3-0.3,6.4-1.1,6.4-2.3l-0.7-1C706.8,171.9,704.7,172.6,701.2,174z"/>
	<rect x="752" y="163" fill="#FFFFFF" width="3" height="1"/>
	<path fill="#FFFFFF" d="M755.4,163h1.2l1.4-0.8l-0.7-0.9C756,161.9,755.4,162,755.4,163z"/>
	<path fill="#FFFFFF" d="M735.8,166.3c0,0.8,0.5,1.2,1.4,1.2c6.7-1.8,10.1-3,10.1-3.3l-0.7-1.2C745.6,163.1,742,164.2,735.8,166.3z"
		/>
	<path fill="#FFFFFF" d="M727,168.1v0.5c1,0,2.3-0.3,3.7-1c0.5,0,1.1,0.2,1.9,0.5l1.4-0.5l-0.7-1.2C729.1,166.3,727,166.9,727,168.1
		z"/>
	<path fill="#FFFFFF" d="M710.1,171.9v1.6l1.2-0.5C711.3,172.4,710.9,172,710.1,171.9z"/>
	<path fill="#FFFFFF" d="M719,170.2v0.5l0.7,1.2c1.3-1.2,2.3-1.7,4.3-1.7v-1.6C721,168.6,719,169.1,719,170.2z"/>
</g>
<g>
</g>
<g>
</g>
<g>
</g>
<g>
</g>
<g>
</g>
<g>
</g>
<g>
</g>
<g>
</g>
<g>
</g>
<g>
</g>
<g>
</g>
<g>
</g>
<g>
</g>
<g>
</g>
<g>
</g>
</svg>
