<svg id="Layer_1" xmlns="http://www.w3.org/2000/svg" viewBox="0 0 831 435"><g fill="#FFF"><path d="M560 218v-2h-2v-1h5v-1.1l3 .5V213h1.6c4.7-1 7.4-1.9 8.4-1.9v-.5l-.8-1 3.8-.5v1h.6l4.3-3h.7l4.3.7c0-.8 1.7-1.3 5-1.5.5 0 1.1.6 1.6 1.6.8 0 1.4-.3 1.4-1v-.5l-1.4-1.7c1.6 0 2.2-.5 2.2-1.5h3.8c1.3 0 2.9-.8 5-1.8 0 .7.4.8 1.2.8h.7c.8 0 1.2-.1 1.2-.8l-.7-1.1c.5 0 1.1-.1 1.9-.5.8.3 1.7.5 2.6.5 1.4-1.4 3.3-1.9 5.7-1.9.9 0 1.7-.3 2.4.7h.7c0-1-.2-1.2-.7-1.9 0-.7 1-1.1 3.1-1.1l1.2.5c0-.6 1.1-1.5 3.3-2.6 3.6-.5 5.9-1.1 6.9-1.7l-.7-.8 3.1.8h3.1c8.4-4 12.9-5.1 13.4-5.1l-.7-1.3c-1.3 0-3 .3-5 1.2l-24.6 6.4c-17.2 4.1-26.7 6.8-28.3 8.3-.5 0-.7-.3-.7-.8-13.7 4.1-28.1 8.4-43.4 11.4h-1.4l1.9-2.5-.5-1.2c5-3.6 7.5-5.9 7.5-6.9 5.9-5.2 8.8-8.5 8.8-9.9l9.4-10.4c4.6-5.3 6.9-8.2 6.9-8.7 6.5-7.1 13.7-15.8 21.5-26.2l-.7-1c0-.7.5-1.1 1.4-1.2 4.5-6.9 7.6-10.9 9.4-12 15.5-26.5 23.3-42.3 23.3-47.6 4.3-7.6 7.7-20 10.2-37l-.8-1.2c.5 0 .6-.2.6-.5V43c0-11.6-4.3-20.8-13.2-27.8-8.2-4.7-15.7-7.1-22.7-7.1l-1.2.5c0-.3-.2-.5-.5-.5-11.6 0-24.8 3.3-39.7 9.9-5.3.6-15.8 5.8-31.6 15.8-11 6.2-21.1 14.1-30.2 23.4-3 2.3-6.9 6.1-11.7 11.2-1.3-.7-2.6-1.4-3.9-2-17.2-8.7-39.9-14.7-67.9-18l-1.6.7c0-.6-5.8-1.3-17.4-2.1l-1.7.7c0-.5-.3-.7-.9-.7h-.7c-6 0-11-.3-14.9-.7-21.3 0-46.1 2.8-74.4 8.3-12.3 2.2-28.3 6.1-48.1 11.8-22 7.4-42.6 16.9-62 28.5-14.2 10.2-21.7 15.3-22.4 15.3-7.5 8.2-13.6 14.2-18.2 18-11.8 15.5-17.8 30.5-17.8 45.1v2.1c0 8.7 3.6 17.5 10.7 26.4 19.1 19.4 44.5 29.2 76.2 29.2H246v.6l-51.1 52.8c-1 1.5-12 4.3-33.1 8.3l-41.9 11.1c-.9 0-5.9 1.6-12.9 4.9v-.7c-15 5.7-22.3 8.9-23.5 9.7-12.1 4.7-18.6 7.8-19 9-8 3.4-20.5 10.5-37.4 21.5-3.8 4.2-6.3 6.2-7.5 6.2-5.3 6.5-8.6 9.5-9.9 9.5 0 2.3.8 4 2.4 4H14v-1c7-2.3 10.7-3.9 10.7-4.9 21.1-15.7 38.9-26.6 53.8-32.6l24.8-11.1c23-7.9 48.7-15 77.7-21.5v.7c-1 1.4-7.5 6.9-20.7 16.2.3 1.4 2.5 2.3 6.6 2.3h3.3c1.5 0 4.2-1.4 8.2-3.7 11.8-10.2 18.2-15.4 19.1-15.4 0-2.9 7.8-5.5 23.3-7.7 41.3-7.4 63.1-11.8 65.3-13.2 15.5-2.7 23.3-4.5 23.3-5.6 37-8.8 65.7-17.6 85.9-26.4 11.5-4.7 21.9-9.1 31.2-13.4 5.1 6.9 13.4 10.6 24.7 10.6.7-.3 1.5-.3 2.4-.3h3.8c7.4 0 18.6-1.9 33.5-5.1l29.5-6.9h.8v1.7c-1 .1-8.1 6.9-22.1 20.3-2.4 1.6-9.6 8-21.5 19.1-5.1 3.6-9.5 7.4-13.2 11.5-2.9 2.9-4.6 4.3-5 4.3-10 7.4-15.2 11.8-15.3 13.2-3.6 1.8-5.8 3.8-7.8 5.9v1h1.8c3.7-2 5.6-2.6 5.6-3.5 5.4-2.4 8.2-4.2 8.2-5 0-.3-.2-.9-.5-1.6.3 0 .5-.1.5-.5l1.4.6h1.2c1-1 2.1-1.3 3.1-1.3 8.4-7.9 13.5-11.9 15.1-12 2.4-3.2 4.9-5.1 7.1-5.4l-.8-1.2v-.5s1.6-.3 3-1c2.2-2.9 4.2-4.3 6.2-4.3 4.2-5.7 7.3-8.6 9.5-8.7 2.8-3.7 5.1-5.6 6.9-5.6.3-1.8.9-3.1 1.7-3.8 3.4-1.2 6.5-3.2 9.5-6.1.2-1 3.6-3.9 10.1-8.7 2.4-3.6 4.1-5.4 5-5.4 2.2-4.2 7.2-7.7 15.1-10.4 0 .3.2.5.7.5h.5l1.9-1c0-.8-.6-1.2-1.9-1.2l.7-1-.7-1c.5 0 .7-.2.7-.5 2.2.7 3.7 1 4.5 1 1.6-.3 3.1-.7 4.3-1.4l1.9 1.2h1.4zM20 361v-1h2.2c1 0 1.6 0 1.6 1H20zm378.4-128.7c-2 1.2-4.4 2.3-7.3 3.5-18.7 6.9-28.2 10.6-28.3 11.1-8.4 1.9-16.7 4.4-24.2 7.6-18 4.2-31.7 7.9-40.7 11.1v-.7l-34 7.6v-.7c-10 2.8-20.2 5.1-29.5 6.9l-1.4-.7-7.1 2.1v-.7c-1 .9-6 1.9-13 2.8v-1.4c7-6.7 10-10.4 10-11.1 13.2-12.6 19.8-19.6 19.8-20.8 10.5-9 16.9-15.7 19.1-20.1 23.5-4.3 46.6-12.6 69.4-25 14.5-6.8 29.1-17.2 43.9-31.2 2-6 3.4-9 4.2-9-.6-5.1-1.7-7.6-3.3-7.6-15.3 17.4-29.6 29.1-43 35.4-14 9.5-32.7 17.7-56.2 25.7h-1.7c.8-2 1.6-2.8 2.4-2.8 1.2-1.7 8.9-10.3 23.3-25.7 34.2-38.9 58.5-68.5 72.7-88.9l19.1-29.6c0-3.7-1.9-7.1-5.7-8.1h-.9c-2.7 1-5.4 4.6-8.3 10.2-4.1 8.2-6.5 12.5-7.5 13.1-6.9 10.4-12.1 17.5-15.6 21.5-17.7 24.9-48.9 61.4-93.5 109.7-3.1 5.1-12.5 7.6-28.1 7.6h-7.5c-10.2 0-22-2.1-35.5-6.3-22.1-9.9-33.1-22.9-33.1-38.9v-2.1l.8-3.5c-.6 0-.9-.2-.9-.7 0-15.3 9.4-32.2 28.3-50.7 25.7-20.6 44.1-32.6 55.3-36.1 6-3.2 19.4-8.1 39.8-14.6 7.8-3.2 28.8-8 64.8-14.5v.7c5-1.4 21.8-2.8 51.1-4.2 25.1 0 49.9 3.5 74.4 10.4 9.1 3 17.1 6.3 24 9.9-1.4 1.6-2.9 3.3-4.5 5-17.1 21.5-26.6 40.4-28.3 56.7l1.7 6.6c3.8 6.5 9.7 9.7 17.7 9.7 5.9 0 13.5-2.7 22.7-8.2 7.2-6 11.4-11.1 12.7-15.3 0-1-.9-1.8-2.6-2.3.8-1.3 1.7-3.4 2.6-6.8-.5-2-.7-3.1-.7-3.1h-.7c-.9 0-2.4 2.5-4.3 7.4-12.1 15.3-23.1 22.6-32.8 22.6h-.7c-4.2-2-6.2-5.7-6.2-9.3 0-1 .2-1.5.7-1.5 0-9.8 3-19.1 8.9-27.7 0-.5-.2-.7-.7-.7 6.8-11.2 13.8-21 20.8-29.3.1-.1 0-.2.1-.3 18.2 11.2 27.1 25.2 27.1 41.9v6.9c0 7.5-4 17.7-12.3 30.5-2.3 3.7-5.5 7.5-9.7 11.7-14.4 4.3-27.3 9.4-38.7 15.1-27.8 15.1-42.4 27.8-43.9 38-12.6 5.1-20.3 9-23.2 11.6l-1.8-.4zm88.4-48.2c-.8.6-1.5 1.1-2.3 1.7-9.1 6.9-14.3 10.4-15.6 10.4-11 7.1-21.3 13.2-30.9 18.3 1.2-1.4 2.6-2.9 4.1-4.5 12.1-8.8 18.2-13.4 18.2-13.7 9.6-4.7 18.4-8.7 26.5-12.2zm46.1 33.6c-39.3 10.5-67.7 15.8-85 15.8-3 0-4.5-.2-4.5-.5-6.4 0-10-1.7-11-5.1 10.7-5.1 19.8-9.9 27.3-14.3 1.3 0 9.3-4.6 23.9-13.9 18.6-13.8 29.2-22.4 31.7-25.9 3.8-1.1 7.4-1.9 10.7-2.4 9.5-1.8 17.9-4 25.2-6.6l3.1.5c0-.7 1.1-2 3.3-3.5 0-.8-1.3-.8-3.8-1.8h-5c-9.3 1-17.3 2.1-24.2 3.4 9.2-11.2 13.8-23.6 13.8-37.4-.6 0-.9-.2-.9-.6l.9-1.3c0-.5-.3-1-.9-2h.9c-1.2-4-2-8.8-2.4-13.2-6-14.9-16-27-30.1-36.3 14.1-14.1 26.7-24.8 37.9-32.1 24.8-15.6 47.4-24.4 68-26.2 3.4 0 7.4.2 12 .5 12.1 3.5 18.3 12.6 18.3 27.2v3.8c-1 7.5-2.1 14.3-3.7 20.3-5.1 16-12.5 32.7-22.2 50.2-12.6 19.8-22.5 34-29.5 42.5-10 12.6-18.2 22.3-24.6 29-11.1 13.3-20.7 23.3-29.2 29.9zM696 176.2v.8h2.1c.8 0 .9-.6.9-1.3v-.7h-1.6c-.7 0-1.4.5-1.4 1.2z"/><path d="M820.3 29h-.5c-.2 3-10.8 13.1-31.6 31.8 0 .3-17.6 17.9-52.9 52.5-18 19.3-27.5 29-28.5 29-7.6 8.9-12 13.7-13.2 14.3-10.5 12.4-16.2 18.6-17 18.6 0 3.5-6.7 6.7-20.1 9.7 0 .7.4 1.1 1.2 1.1h1.2c1.3 0 3.8-1 7.6-2h.5v.9l-1.3 1.7.8 1-10.7 11.5c-6.5 9-10.2 13.8-11.3 14.2 0 .3-6.3 8.7-18.9 25l-20.1 29.5c-12.4 18.6-23.2 38.3-32.7 59-9.3 21.4-13.8 39-13.8 52.9v4.3c0 19.2 9.8 31.9 29.6 38.2l1.2-.5c1.3.7 4.8 1.3 10.7 1.7 2.1-.3 3.1-.8 3.1-1.2 5.4 0 8.1-.7 8.1-2.5l1.9 1.2h2.4v-.8l-.9-.8 1-.4h1.4s-.2.4-.7.4l.7.9c1.5-1.9 2.5-2.6 3.1-2.6 0 .7 1 1.2 3.1 1.2h1.2c.8 0 1.2-.6 1.2-1.3 0-.6-.4-.9-1.2-1 0-.9 1.3-1.7 3.8-1.7h4.3c0-1 .5-2.4 1.8-4 2.5 0 5.2-.9 8.2-2.2v-.6h-1v-.9c5 0 9-1.4 11.9-4.3l1.4.5c2.2-2 8.3-5.6 18.2-10.9 6.7-3.5 10.3-5.6 10.3-6.4l17.2-9.4V375h-1.7l-1.2.8c-7.6 3.9-11.5 6.4-11.5 7.2-7.5 2.7-11.3 4.7-11.3 6.1-8.4 3.2-12.7 5.6-12.7 7-.3 0-.5-.2-.5-.5-29 14.2-50.9 21.4-65.6 21.4-10.9 0-18.5-3.6-22.7-10.9-4.2-5.9-6.2-12.8-6.2-20.6.3 0 .5-.2.5-.7l-.5-1c0-5.1.4-9.7 1.2-13.7 2.5-15.3 5.7-26 9.4-32.1 1.2-5.3 5-13.9 11.5-25.7 0-1.9 3.6-8.4 10.8-19.6 1.8-4.4 3.1-6.6 3.6-6.6 1.8-4.7 3.4-7.1 4.5-7.1 4.3-8.3 7.2-12.8 8.8-13.5.2-2.2.9-3.3 1.9-3.3 2.2-4.2 4.9-7.8 8.2-10.9 2.9-5.9 4.7-8.9 5.6-8.9.5-1.8 2.6-4.4 5.9-7.6 5.6-8.1 11-14.8 16-20.1V212h-1.7l-1.3.9v-.7c1-.8 1.3-1.2 1.3-2.2h1.7v1h.8c.7 0 2.2-1.4 4.5-4.3l10.5-12.5c4.4-6.7 10.3-12.2 18.3-16.5v-.7h-2v-1.3c3-3.7 4.2-5.6 4.5-5.6 11-10.6 16.6-16.8 16.6-18.6 3.7-2.2 8.1-6.2 13.2-12 4-4.3 6.2-6.7 6.3-7.1 5.4-4.7 8.2-8 8.2-9.7.5 0 .7.2.7.5l68.7-66.1c13.4-11.8 20.1-19.3 20.1-22.1-.1-2.4-1.7-4-5.1-6zM601.6 283.7h-.7v-1h1.9c0 .6-.4 1-1.2 1zm11.3-15.8c-.5 0-1.1.2-1.9.5v-1h1.9v.5zM644 224h-.7s-.2-.9-.7-1.6c.5 0 .4-.1.4-.4.8 0 1 .4 1 1.1v.9zm48.9-59.2c0 .7-.4 1-1.2 1v-1.6h1.2v.6zM576.5 212s-.5.9-1.5.9v1c2-.3 3-.5 3-.5v-.5c0-.7-.2-.9-1-.9h-.5zM517 112.4V111h-1.1c0 1 .1 1.2-.9 1.9v.1h.9c.8 0 1.1.1 1.1-.6z"/><path d="M771.2 158.2h1.9v1h-1.9zM701.2 174l.5 1.2c4.3-.3 6.4-1.1 6.4-2.3l-.7-1c-.6 0-2.7.7-6.2 2.1zM752 163h3v1h-3zM755.4 163h1.2l1.4-.8-.7-.9c-1.3.6-1.9.7-1.9 1.7zM735.8 166.3c0 .8.5 1.2 1.4 1.2 6.7-1.8 10.1-3 10.1-3.3l-.7-1.2c-1 .1-4.6 1.2-10.8 3.3zM727 168.1v.5c1 0 2.3-.3 3.7-1 .5 0 1.1.2 1.9.5l1.4-.5-.7-1.2c-4.2-.1-6.3.5-6.3 1.7zM710.1 171.9v1.6l1.2-.5c0-.6-.4-1-1.2-1.1zM719 170.2v.5l.7 1.2c1.3-1.2 2.3-1.7 4.3-1.7v-1.6c-3 0-5 .5-5 1.6z"/></g></svg>